<svg width="24" height="29" viewBox="0 0 24 29" fill="none" xmlns="http://www.w3.org/2000/svg">
<g opacity="0.9">
<path fill-rule="evenodd" clip-rule="evenodd" d="M4.92961 22.1568C4.53909 22.5473 4.53909 23.1805 4.92961 23.571C5.32014 23.9615 5.9533 23.9615 6.34383 23.571L12.0008 17.914L17.658 23.5711C18.0485 23.9616 18.6817 23.9616 19.0722 23.5711C19.4627 23.1806 19.4627 22.5474 19.0722 22.1569L13.4151 16.4998L19.0717 10.8431C19.4623 10.4526 19.4623 9.8194 19.0717 9.42888C18.6812 9.03835 18.0481 9.03836 17.6575 9.42888L12.0008 15.0856L6.34427 9.42899C5.95374 9.03846 5.32058 9.03846 4.93005 9.42899C4.53953 9.81951 4.53953 10.4527 4.93005 10.8432L10.5866 16.4998L4.92961 22.1568Z" fill="#9797AF"/>
</g>
</svg>
